<svg width="103" height="262" viewBox="0 0 103 262" fill="none" xmlns="http://www.w3.org/2000/svg">
<path d="M14.024 54.324L28.92 62H74.064L88.96 54.324V16.476L74.064 8.8H28.92L14.024 16.476V54.324ZM15.088 31.372C15.088 26.508 15.848 24.304 19.04 22.632L43.74 9.864H51.416V60.936H46.856C43.816 60.936 42.22 60.176 37.584 57.744L19.04 48.168C15.848 46.496 15.088 44.292 15.088 39.428V31.372ZM52.556 60.936V9.864H56.128C59.168 9.864 60.764 10.624 65.4 13.056L83.944 22.632C87.136 24.304 87.896 26.508 87.896 31.372V39.428C87.896 44.292 87.136 46.496 83.944 48.168L59.244 60.936H52.556Z" fill="white"/>
<path d="M14.024 113.324L28.92 121H74.064L88.96 113.324V75.476L74.064 67.8H28.92L14.024 75.476V113.324ZM15.088 90.372C15.088 85.508 15.848 83.304 19.04 81.632L43.74 68.864H51.416V119.936H46.856C43.816 119.936 42.22 119.176 37.584 116.744L19.04 107.168C15.848 105.496 15.088 103.292 15.088 98.428V90.372ZM52.556 119.936V68.864H56.128C59.168 68.864 60.764 69.624 65.4 72.056L83.944 81.632C87.136 83.304 87.896 85.508 87.896 90.372V98.428C87.896 103.292 87.136 105.496 83.944 107.168L59.244 119.936H52.556Z" fill="white"/>
<path d="M14.024 172.324L28.92 180H74.064L88.96 172.324V134.476L74.064 126.8H28.92L14.024 134.476V172.324ZM15.088 149.372C15.088 144.508 15.848 142.304 19.04 140.632L43.74 127.864H51.416V178.936H46.856C43.816 178.936 42.22 178.176 37.584 175.744L19.04 166.168C15.848 164.496 15.088 162.292 15.088 157.428V149.372ZM52.556 178.936V127.864H56.128C59.168 127.864 60.764 128.624 65.4 131.056L83.944 140.632C87.136 142.304 87.896 144.508 87.896 149.372V157.428C87.896 162.292 87.136 164.496 83.944 166.168L59.244 178.936H52.556Z" fill="white"/>
<path d="M14.024 231.324L28.92 239H74.064L88.96 231.324V193.476L74.064 185.8H28.92L14.024 193.476V231.324ZM15.088 208.372C15.088 203.508 15.848 201.304 19.04 199.632L43.74 186.864H51.416V237.936H46.856C43.816 237.936 42.22 237.176 37.584 234.744L19.04 225.168C15.848 223.496 15.088 221.292 15.088 216.428V208.372ZM52.556 237.936V186.864H56.128C59.168 186.864 60.764 187.624 65.4 190.056L83.944 199.632C87.136 201.304 87.896 203.508 87.896 208.372V216.428C87.896 221.292 87.136 223.496 83.944 225.168L59.244 237.936H52.556Z" fill="white"/>
</svg>
