<svg width="61" height="179" viewBox="0 0 61 179" fill="none" xmlns="http://www.w3.org/2000/svg">
<path d="M3.3792 33.445L14.1592 39H46.8292L57.6092 33.445V6.055L46.8292 0.499997H14.1592L3.3792 6.055V33.445ZM4.1492 16.835C4.1492 13.315 4.6992 11.72 7.0092 10.51L24.8842 1.27H30.4392V38.23H27.1392C24.9392 38.23 23.7842 37.68 20.4292 35.92L7.0092 28.99C4.6992 27.78 4.1492 26.185 4.1492 22.665V16.835ZM31.2642 38.23V1.27H33.8492C36.0492 1.27 37.2042 1.82 40.5592 3.58L53.9792 10.51C56.2892 11.72 56.8392 13.315 56.8392 16.835V22.665C56.8392 26.185 56.2892 27.78 53.9792 28.99L36.1042 38.23H31.2642Z" fill="white"/>
<path d="M3.3792 77.445L14.1592 83H46.8292L57.6092 77.445V50.055L46.8292 44.5H14.1592L3.3792 50.055V77.445ZM4.1492 60.835C4.1492 57.315 4.6992 55.72 7.0092 54.51L24.8842 45.27H30.4392V82.23H27.1392C24.9392 82.23 23.7842 81.68 20.4292 79.92L7.0092 72.99C4.6992 71.78 4.1492 70.185 4.1492 66.665V60.835ZM31.2642 82.23V45.27H33.8492C36.0492 45.27 37.2042 45.82 40.5592 47.58L53.9792 54.51C56.2892 55.72 56.8392 57.315 56.8392 60.835V66.665C56.8392 70.185 56.2892 71.78 53.9792 72.99L36.1042 82.23H31.2642Z" fill="white"/>
<path d="M3.3792 121.445L14.1592 127H46.8292L57.6092 121.445V94.055L46.8292 88.5H14.1592L3.3792 94.055V121.445ZM4.1492 104.835C4.1492 101.315 4.6992 99.72 7.0092 98.51L24.8842 89.27H30.4392V126.23H27.1392C24.9392 126.23 23.7842 125.68 20.4292 123.92L7.0092 116.99C4.6992 115.78 4.1492 114.185 4.1492 110.665V104.835ZM31.2642 126.23V89.27H33.8492C36.0492 89.27 37.2042 89.82 40.5592 91.58L53.9792 98.51C56.2892 99.72 56.8392 101.315 56.8392 104.835V110.665C56.8392 114.185 56.2892 115.78 53.9792 116.99L36.1042 126.23H31.2642Z" fill="white"/>
<path d="M10.4787 138.77H23.9537L28.8487 136.24C33.2487 133.985 34.6237 133.27 37.4287 133.27H38.0887V168.195C36.2187 170.23 35.5037 170.23 34.4037 170.23H33.6887V171H48.5937V170.23H47.8787C46.7787 170.23 46.0637 170.23 44.1387 168.14V135.36C46.0637 133.27 46.7787 133.27 47.8787 133.27H48.5937V132.5H23.8437L17.9037 135.58C14.4387 137.395 12.6787 138 10.9187 138H10.4787V138.77Z" fill="white"/>
</svg>
