<svg width="87" height="48" viewBox="0 0 87 48" fill="none" xmlns="http://www.w3.org/2000/svg">
<path d="M10.112 45.76H12.096V48H12.8V27.84H14.144V25.6H8.768V27.84H10.112V30.08H10.752V39.04H11.456V41.28H10.752V43.52H8.768V45.76H6.72V43.52H5.376V41.28H4.736V39.04H4.032V36.8H3.392V25.6H2.688V23.36H3.392V14.4H4.032V9.92H4.736V7.68H6.08V5.44H8.768V7.68H10.112V9.92H10.752V12.16H11.456V18.88H12.096V3.2H11.456V7.68H10.752V5.44H9.408V3.2H4.736V5.44H3.392V7.68H2.688V9.92H2.048V14.4H1.344V18.88H0.704V32.32H1.344V39.04H2.048V41.28H2.688V43.52H3.392V45.76H4.736V48H10.112V45.76ZM18.8445 43.52V25.6H21.5325V27.84H22.2365V30.08H22.8765V34.56H23.5805V16.64H22.8765V21.12H22.2365V23.36H18.8445V7.68H18.2045V5.44H23.5805V7.68H24.9245V12.16H25.5645V18.88H26.2685V3.2H15.5165V5.44H16.8605V45.76H15.5165V48H26.2685V36.8H26.9085V32.32H26.2685V34.56H25.5645V39.04H24.9245V43.52H23.5805V45.76H18.2045V43.52H18.8445ZM28.329 3.2V16.64H28.969V9.92H29.673V7.68H31.017V5.44H33.001V43.52H32.361V45.76H31.017V48H37.033V45.76H35.689V43.52H35.049V7.68H34.345V5.44H37.737V7.68H38.377V12.16H39.081V16.64H39.721V3.2H28.329ZM52.782 45.76H51.438V39.04H52.142V34.56H52.782V32.32H58.158V39.04H58.862V45.76H57.518V48H62.894V45.76H61.55V41.28H60.846V36.8H60.206V32.32H59.502V27.84H58.862V21.12H58.158V16.64H57.518V9.92H56.814V5.44H56.174V0.959999H55.47V5.44H54.83V12.16H54.126V16.64H53.486V23.36H52.782V27.84H52.142V32.32H51.438V36.8H50.798V43.52H50.094V45.76H48.75V48H52.782V45.76ZM55.47 12.16V16.64H56.174V23.36H56.814V27.84H57.518V30.08H52.782V27.84H53.486V23.36H54.126V18.88H54.83V12.16H55.47ZM66.907 27.84H71.643V25.6H72.987V23.36H73.627V18.88H74.331V9.92H73.627V7.68H72.987V5.44H71.643V3.2H63.579V5.44H64.923V45.76H63.579V48H68.955V45.76H67.611V43.52H66.907V27.84ZM66.907 25.6V7.68H66.267V5.44H70.939V7.68H71.643V12.16H72.283V18.88H71.643V23.36H70.299V25.6H66.907ZM79.032 27.84H83.768V25.6H85.112V23.36H85.752V18.88H86.456V9.92H85.752V7.68H85.112V5.44H83.768V3.2H75.704V5.44H77.048V45.76H75.704V48H81.08V45.76H79.736V43.52H79.032V27.84ZM79.032 25.6V7.68H78.392V5.44H83.064V7.68H83.768V12.16H84.408V18.88H83.768V23.36H82.424V25.6H79.032Z" fill="white"/>
</svg>
