<svg width="83" height="44" viewBox="0 0 83 44" fill="none" xmlns="http://www.w3.org/2000/svg">
<path d="M12.6607 44H26.8716V43.12H26.6133C25.2568 43.12 23.1251 42.0514 20.4121 40.6686L4.26329 32.56C1.55029 31.1771 0.904334 29.3543 0.904334 25.3314V10.1829L18.2159 18.8571H37.5945V40.7943C35.915 42.7429 35.0752 43.12 33.7833 43.12H33.5249V44H48.834V43.12H48.5756C47.2837 43.12 46.444 42.7429 44.6999 40.7314V18.8571H64.1431L81.4546 10.1829V25.3314C81.4546 29.3543 80.8087 31.1771 78.0957 32.56L61.9469 40.6686C59.2339 42.0514 57.1022 43.12 55.7457 43.12H55.4873V44H69.6983L82.359 37.6514V0H81.4546V0.440002C81.4546 2.13715 80.4211 3.52 78.0957 4.65143L56.7792 15.3371C52.8389 17.3486 51.4824 17.9771 48.8986 17.9771H33.4604C30.8765 17.9771 29.52 17.3486 25.5797 15.3371L4.26329 4.65143C1.93786 3.52 0.904334 2.13715 0.904334 0.440002V0H0V37.6514L12.6607 44Z" fill="white"/>
</svg>
