<svg width="52" height="52" viewBox="0 0 52 52" fill="none" xmlns="http://www.w3.org/2000/svg">
<rect width="52" height="52" rx="10" fill="white"/>
<path d="M10.3424 37.3043H18.1446V36.8295H18.0028C17.258 36.8295 16.0877 36.253 14.5982 35.5069L5.73202 31.1321C4.24251 30.3861 3.88786 29.4026 3.88786 27.2321V19.0591L13.3924 23.7391H24.0318V35.5748C23.1097 36.6261 22.6486 36.8295 21.9394 36.8295H21.7975V37.3043H30.2026V36.8295H30.0608C29.3515 36.8295 28.8904 36.6261 27.9329 35.5408V23.7391H38.6077L48.1122 19.0591V27.2321C48.1122 29.4026 47.7576 30.3861 46.2681 31.1321L37.4019 35.5069C35.9124 36.253 34.7421 36.8295 33.9973 36.8295H33.8555V37.3043H41.6577L48.6087 33.8791V13.5652H48.1122V13.8026C48.1122 14.7182 47.5448 15.4643 46.2681 16.0748L34.5648 21.84C32.4014 22.9252 31.6567 23.2643 30.2381 23.2643H21.762C20.3434 23.2643 19.5987 22.9252 17.4353 21.84L5.73202 16.0748C4.4553 15.4643 3.88786 14.7182 3.88786 13.8026V13.5652H3.39136V33.8791L10.3424 37.3043Z" fill="#090B0C"/>
</svg>
