<svg width="364" height="44" viewBox="0 0 364 44" fill="none" xmlns="http://www.w3.org/2000/svg">
<path d="M12.1444 43.3728H25.7758V42.5054H25.528C24.2268 42.5054 22.1821 41.452 19.5797 40.0889L4.08944 32.0959C1.48707 30.7327 0.867456 28.9359 0.867456 24.9703V10.0377L17.473 18.5883H36.0614V40.2128C34.4504 42.1336 33.6449 42.5054 32.4057 42.5054H32.1578V43.3728H46.8426V42.5054H46.5948C45.3556 42.5054 44.5501 42.1336 42.8771 40.1508V18.5883H61.5274L78.133 10.0377V24.9703C78.133 28.9359 77.5134 30.7327 74.911 32.0959L59.4208 40.0889C56.8184 41.452 54.7737 42.5054 53.4725 42.5054H53.2246V43.3728H66.8561L79.0005 37.1147V0H78.133V0.43373C78.133 2.10668 77.1416 3.46982 74.911 4.58513L54.4639 15.1185C50.6842 17.1013 49.383 17.7209 46.9046 17.7209H32.0959C29.6174 17.7209 28.3162 17.1013 24.5366 15.1185L4.08944 4.58513C1.85884 3.46982 0.867456 2.10668 0.867456 0.43373V0H0V37.1147L12.1444 43.3728Z" fill="white"/>
<path d="M80.9653 0.867456H81.7708C83.01 0.867456 83.8155 0.867456 85.9222 3.16002V40.2128C83.8155 42.5054 83.01 42.5054 81.7708 42.5054H80.9653V43.3728H97.7568V42.5054H96.9513C95.7121 42.5054 94.9066 42.5054 92.7379 40.1508V3.22198C94.9066 0.867456 95.7121 0.867456 96.9513 0.867456H97.7568V0H80.9653V0.867456Z" fill="white"/>
<path d="M97.7771 0V0.867456H98.5826C99.8218 0.867456 100.627 0.867456 102.734 3.16002V40.2128C100.627 42.5054 99.8218 42.5054 98.5826 42.5054H97.7771V43.3728H114.569V42.5054H113.763C112.524 42.5054 111.718 42.5054 109.55 40.1508V24.7845H111.285C114.445 24.7845 115.994 25.59 120.951 28.1304L150.63 43.3728H165.687V42.5054H165.315C163.332 42.5054 161.349 41.8238 157.446 39.7791L128.262 24.7845H155.959L165.625 19.8276V0H148.275L120.331 14.375C115.374 16.9154 113.825 17.7209 110.665 17.7209H109.55V0H97.7771ZM125.969 18.5883L155.091 3.59375C158.995 1.54903 160.978 0.867456 162.96 0.867456H164.757V7.68318C164.757 11.6487 164.138 13.4456 161.535 14.8087L148.895 21.3146C145.115 23.2974 143.814 23.917 141.336 23.917H109.55V18.5883H125.969Z" fill="white"/>
<path d="M167.641 37.1147L179.785 43.3728H194.966V42.5054H194.408C191.93 42.5054 190.628 41.8857 186.849 39.903L171.73 32.0959C169.128 30.7327 168.508 28.9359 168.508 24.9703V18.5883H224.521V40.2128C222.414 42.5054 221.609 42.5054 220.37 42.5054H219.564V43.3728H236.356V42.5054H235.55C234.311 42.5054 233.505 42.5054 231.337 40.1508V3.22198C233.505 0.867456 234.311 0.867456 235.55 0.867456H236.356V0H205.623L176.501 14.9946C172.598 17.0393 170.615 17.7209 168.632 17.7209H167.641V37.1147ZM184.99 17.7209L211.261 4.21336C216.218 1.67295 217.767 0.867456 220.927 0.867456H224.521V17.7209H184.99Z" fill="white"/>
<path d="M236.817 37.1147L248.962 43.3728H290.724L302.868 37.1147V17.7209H284.899L278.208 21.1907C274.304 23.2354 272.321 23.917 270.338 23.917H264.638V24.7845H285.023L290.538 21.9343C295.495 19.3938 297.044 18.5883 300.204 18.5883H302.001V24.9703C302.001 28.9978 301.381 30.7327 298.779 32.0959L278.641 42.5054H263.585C261.106 42.5054 259.805 41.8857 256.025 39.903L240.907 32.0959C238.305 30.7327 237.685 29.7414 237.685 25.7758V18.5883H256.459L285.581 3.59375C289.484 1.54903 291.467 0.867456 293.45 0.867456H301.877V0H278.765L250.821 14.375C245.864 16.9154 244.315 17.7209 241.155 17.7209H236.817V37.1147Z" fill="white"/>
<path d="M304.084 43.3728H351.856L364 37.1147V27.0151H363.133V27.3868C363.133 29.6174 362.513 30.7327 359.911 32.0959L344.792 39.903C341.012 41.8857 339.711 42.5054 337.233 42.5054H316.971V22.1201H356.379V21.2527H316.971V0.867456H337.233C339.711 0.867456 341.012 1.48707 344.792 3.46982L359.911 11.2769C362.513 12.6401 363.133 13.7554 363.133 15.986V16.3577H364V6.25808L351.856 0H304.084V0.867456H306.004C307.244 0.867456 308.049 0.867456 310.156 3.16002V40.2128C308.049 42.5054 307.244 42.5054 306.004 42.5054H304.084V43.3728Z" fill="white"/>
</svg>
