<svg width="127" height="83" viewBox="0 0 127 83" fill="none" xmlns="http://www.w3.org/2000/svg">
<path d="M5.94446 40.39H12.9005V37.1H14.8745V33.81H15.8145V27.23H16.8485V14.07H15.8145V10.78H14.8745V7.49H12.9005V4.2H1.05646V7.49H3.03046V66.71H1.05646V70H8.95246V66.71H6.97846V63.42H5.94446V40.39ZM5.94446 37.1V10.78H5.00446V7.49H11.8665V10.78H12.9005V17.36H13.8405V27.23H12.9005V33.81H10.9265V37.1H5.94446ZM20.8391 14.07H23.7531V4.2H20.8391V14.07ZM25.7271 66.71H23.7531V23.94H22.8131V27.23H18.8651V30.52H19.8051V33.81H20.8391V63.42H19.8051V66.71H17.8311V70H25.7271V66.71ZM38.6036 43.68V37.1H37.5696V30.52H36.6296V27.23H34.6556V23.94H31.6476V27.23H29.6736V30.52H28.7336V33.81H27.6996V40.39H26.7596V56.84H27.6996V63.42H28.7336V66.71H29.6736V70H35.5956V66.71H36.6296V63.42H31.6476V60.13H30.7076V56.84H29.6736V46.97H28.7336V43.68H38.6036ZM32.6816 27.23H33.6216V30.52H34.6556V33.81H35.5956V40.39H29.6736V33.81H30.7076V30.52H32.6816V27.23ZM37.5696 63.42V60.13H36.6296V63.42H37.5696ZM49.4569 66.71H50.4909V63.42H45.5089V60.13H44.5689V56.84H43.5349V33.81H44.5689V30.52H46.5429V27.23H47.4829V30.52H49.4569V33.81H48.5169V37.1H49.4569V40.39H51.4309V30.52H50.4909V27.23H48.5169V23.94H45.5089V27.23H43.5349V30.52H42.5949V33.81H41.5609V40.39H40.6209V56.84H41.5609V63.42H42.5949V66.71H43.5349V70H49.4569V66.71ZM51.4309 63.42V60.13H50.4909V63.42H51.4309ZM65.3165 43.68V37.1H64.2825V30.52H63.3425V27.23H61.3685V23.94H58.3605V27.23H56.3865V30.52H55.4465V33.81H54.4125V40.39H53.4725V56.84H54.4125V63.42H55.4465V66.71H56.3865V70H62.3085V66.71H63.3425V63.42H58.3605V60.13H57.4205V56.84H56.3865V46.97H55.4465V43.68H65.3165ZM59.3945 27.23H60.3345V30.52H61.3685V33.81H62.3085V40.39H56.3865V33.81H57.4205V30.52H59.3945V27.23ZM64.2825 63.42V60.13H63.3425V63.42H64.2825ZM81.5168 14.07H84.4308V4.2H81.5168V14.07ZM86.4048 66.71H84.4308V23.94H83.4908V27.23H79.5428V30.52H80.4828V33.81H81.5168V63.42H80.4828V66.71H78.5088V70H86.4048V66.71ZM92.3253 23.94H91.3853V27.23H87.4373V30.52H89.4113V66.71H87.4373V70H94.2993V66.71H92.3253V33.81H91.3853V30.52H92.3253V33.81H93.3593V30.52H97.3073V66.71H95.3333V70H102.195V66.71H100.221V30.52H99.2813V27.23H98.2473V23.94H95.3333V27.23H93.3593V30.52H92.3253V23.94ZM110.158 0.909999V4.2H108.184V7.49H107.15V10.78H106.21V20.65H105.176V27.23H103.202V30.52H105.176V66.71H103.202V70H110.158V66.71H108.184V30.52H112.132V27.23H108.184V10.78H109.124V7.49H110.158V4.2H111.098V0.909999H110.158ZM112.132 14.07H114.106V10.78H115.046V7.49H114.106V4.2H112.132V14.07ZM123.01 66.71H123.95V63.42H124.984V56.84H125.924V37.1H124.984V33.81H123.95V30.52H123.01V27.23H121.036V23.94H118.028V27.23H116.054V30.52H115.114V33.81H114.08V40.39H113.14V56.84H114.08V63.42H115.114V66.71H116.054V70H123.01V66.71ZM119.062 27.23H120.002V30.52H121.976V37.1H123.01V60.13H121.976V63.42H121.036V66.71H118.028V63.42H117.088V56.84H116.054V33.81H117.088V30.52H119.062V27.23Z" fill="white"/>
</svg>
